<svg width="21" height="21" viewBox="0 0 21 21" fill="none" xmlns="http://www.w3.org/2000/svg">
<path d="M12.41 10.4996L20.7 2.58637C20.8638 2.40377 20.9494 2.16888 20.9397 1.92864C20.93 1.6884 20.8256 1.46052 20.6475 1.29052C20.4694 1.12052 20.2307 1.02093 19.979 1.01165C19.7274 1.00237 19.4813 1.08409 19.29 1.24046L11 9.15365L2.70997 1.23092C2.52167 1.05117 2.26627 0.950195 1.99997 0.950195C1.73367 0.950195 1.47828 1.05117 1.28997 1.23092C1.10167 1.41066 0.995881 1.65445 0.995881 1.90865C0.995881 2.16284 1.10167 2.40663 1.28997 2.58637L9.58997 10.4996L1.28997 18.4127C1.18529 18.4983 1.10027 18.6036 1.04025 18.722C0.980225 18.8405 0.946494 18.9695 0.941175 19.1009C0.935855 19.2324 0.959061 19.3635 1.00934 19.486C1.05961 19.6084 1.13587 19.7197 1.23332 19.8127C1.33078 19.9057 1.44732 19.9785 1.57565 20.0265C1.70398 20.0745 1.84131 20.0967 1.97903 20.0916C2.11675 20.0865 2.25188 20.0543 2.37594 19.997C2.50001 19.9397 2.61033 19.8586 2.69997 19.7586L11 11.8455L19.29 19.7586C19.4813 19.915 19.7274 19.9967 19.979 19.9875C20.2307 19.9782 20.4694 19.8786 20.6475 19.7086C20.8256 19.5386 20.93 19.3107 20.9397 19.0705C20.9494 18.8302 20.8638 18.5953 20.7 18.4127L12.41 10.4996Z" fill="white"/>
</svg>
